<?xml version="1.0" encoding="UTF-8" standalone="no"?>
<!DOCTYPE svg PUBLIC "-//W3C//DTD SVG 1.1//EN" "http://www.w3.org/Graphics/SVG/1.1/DTD/svg11.dtd">
<svg width="100%" height="100%" viewBox="0 0 1000 322" version="1.1" xmlns="http://www.w3.org/2000/svg" xmlns:xlink="http://www.w3.org/1999/xlink" xml:space="preserve" xmlns:serif="http://www.serif.com/" style="fill-rule:evenodd;clip-rule:evenodd;stroke-linejoin:round;stroke-miterlimit:2;">
    <g id="Final" transform="matrix(1,0,0,0.321772,0,0)">
        <rect x="0" y="0" width="1000" height="1000" style="fill:none;"/>
        <clipPath id="_clip1">
            <rect x="0" y="0" width="1000" height="1000"/>
        </clipPath>
        <g clip-path="url(#_clip1)">
            <g transform="matrix(1,0,0,3.3559,2.3,-1241.21)">
                <path d="M851.5,513.8L803.1,377L849.5,377L879.1,467.4L879.9,467.4L910.3,377L951.9,377L903.5,513.8L954.3,668.204L952.083,661.956C938.323,660.31 922.316,658.747 904.32,657.285L907.9,668.204L875.9,559.4L875.1,559.4L847.287,653.366C834.369,652.614 820.83,651.903 806.72,651.236L800.7,668.204L851.5,513.8ZM134.7,564.2L115.1,425.8L114.3,425.8L95.1,564.2L134.7,564.2ZM83.406,657.891L81.9,668.204L83.406,657.891ZM139.9,601.4L139.9,602.2L89.9,602.2L83.406,657.891C68,659.206 54.175,660.598 42.102,662.054L41.1,668.204L86.7,377L146.3,377L189.13,651.196C174.014,651.907 159.538,652.67 145.781,653.479L147.9,668.204L139.9,601.4ZM213.1,377L268.3,377L311.1,544.6L311.9,544.6L311.9,377L351.1,377L351.1,646.088C333.82,646.409 316.931,646.785 300.477,647.213L305.9,668.204L253.1,452.6L252.3,452.6L252.3,648.654C238.856,649.112 225.779,649.606 213.1,650.134L213.1,377ZM598.3,377L642.3,377L642.3,617L714.7,617L714.7,647.77C678.052,646.699 639.046,645.89 598.3,645.383L598.3,377ZM460.7,377L577.1,377L577.1,417L504.7,417L504.7,495L561.5,495L561.5,535L504.7,535L504.7,644.768C502.301,644.766 499.902,644.765 497.5,644.765C485.121,644.765 472.844,644.792 460.7,644.846L460.7,377ZM735.9,377L779.9,377L779.9,650.051C765.714,649.466 751.031,648.923 735.9,648.427L735.9,377ZM383.9,377L427.9,377L427.9,645.057C413.019,645.183 398.345,645.349 383.9,645.553L383.9,377Z" style="fill:rgb(242,34,34);fill-rule:nonzero;"/>
            </g>
        </g>
    </g>
</svg>
